M48
;DRILL file {KiCad 4.0.5} date 03/08/17 22:22:06
;FORMAT={-:-/ absolute / metric / decimal}
FMAT,2
METRIC,TZ
T1C0.300
T2C0.400
T3C0.800
T4C1.000
%
G90
G05
M71
T1
X127.051Y-99.621
X130.954Y-112.223
T2
X91.44Y-77.47
X91.44Y-82.47
X91.44Y-87.47
X91.44Y-92.47
X91.44Y-97.47
X91.44Y-102.47
X91.44Y-107.47
X91.44Y-112.47
X91.44Y-117.47
X91.44Y-122.47
X91.44Y-127.47
X95.885Y-81.915
X95.885Y-103.505
X97.155Y-75.565
X98.552Y-105.664
X98.652Y-107.359
X99.695Y-71.755
X99.695Y-73.66
X99.695Y-75.565
X101.556Y-73.622
X101.6Y-71.755
X101.6Y-75.565
X103.488Y-73.622
X103.505Y-71.755
X103.505Y-75.565
X103.632Y-131.445
X105.17Y-84.454
X106.68Y-96.012
X107.122Y-98.339
X111.76Y-65.405
X111.887Y-131.227
X112.894Y-108.283
X113.272Y-105.155
X114.935Y-71.12
X115.3Y-109.211
X115.316Y-98.044
X117.125Y-106.317
X117.348Y-103.632
X118.11Y-65.405
X118.618Y-127.508
X118.754Y-103.658
X119.092Y-106.3
X119.313Y-79.738
X119.994Y-94.307
X121.92Y-101.6
X122.49Y-96.852
X122.759Y-99.971
X122.936Y-107.696
X123.136Y-91.042
X124.191Y-105.102
X125.512Y-106.862
X126.619Y-131.227
X126.693Y-105.371
X127.Y-66.04
X129.074Y-67.814
X129.837Y-68.685
X130.174Y-104.159
X130.452Y-90.935
X130.757Y-106.999
X130.825Y-127.496
X130.869Y-103.453
X131.445Y-68.58
X131.519Y-65.694
X131.548Y-105.259
X131.587Y-108.038
X131.704Y-115.081
X131.937Y-102.381
X132.715Y-109.22
X133.079Y-86.524
X133.391Y-101.064
X133.63Y-92.694
X133.968Y-110.113
X135.084Y-110.97
X135.21Y-116.1
X135.435Y-102.114
X135.471Y-99.36
X135.998Y-93.622
X136.144Y-106.68
X136.839Y-100.749
X137.287Y-113.665
X137.554Y-109.936
X137.629Y-96.91
X137.634Y-127.428
X138.603Y-68.449
X138.617Y-65.703
X138.763Y-121.648
X138.838Y-112.97
X139.065Y-97.79
X139.192Y-103.632
X139.382Y-79.248
X139.39Y-105.857
X139.715Y-100.087
X139.717Y-112.102
X139.726Y-121.872
X140.335Y-93.98
X140.716Y-99.568
X140.982Y-92.614
X141.601Y-86.725
X141.87Y-100.676
X142.558Y-108.775
X142.758Y-116.056
X142.875Y-101.727
X143.51Y-108.331
X143.764Y-103.124
X143.944Y-73.755
X144.145Y-95.885
X144.659Y-117.067
X144.987Y-106.941
X145.222Y-91.654
X145.26Y-90.585
X145.415Y-65.405
X146.431Y-100.838
X146.439Y-105.564
X146.939Y-112.141
X147.196Y-74.204
X147.196Y-75.702
X147.485Y-77.361
X147.804Y-126.222
X147.876Y-75.014
X147.927Y-76.433
X148.336Y-73.355
X148.336Y-110.744
X149.225Y-111.252
X149.491Y-126.219
X149.53Y-103.298
X151.072Y-102.618
X151.13Y-66.04
X151.238Y-71.877
X152.859Y-118.069
X152.897Y-110.651
X153.261Y-83.702
X154.178Y-66.167
X155.651Y-105.528
X156.249Y-76.433
X156.319Y-67.691
X158.202Y-77.269
X158.649Y-66.117
X158.75Y-102.381
X159.607Y-72.541
X159.623Y-68.556
X161.037Y-69.362
X161.561Y-75.638
X161.774Y-73.085
X162.193Y-78.944
X165.54Y-73.659
X165.624Y-70.81
X165.724Y-63.182
X166.399Y-67.999
X167.011Y-63.087
X169.118Y-66.061
X169.292Y-63.279
X169.512Y-76.678
X171.307Y-67.782
X171.41Y-70.153
X172.305Y-70.939
X172.966Y-104.029
X173.096Y-79.444
X173.113Y-72.176
X174.732Y-71.764
X174.767Y-63.052
X175.607Y-74.939
X178.598Y-105.568
X184.912Y-77.724
X184.912Y-82.724
X184.912Y-87.724
X184.912Y-92.724
X184.912Y-97.724
X184.912Y-102.724
X184.912Y-107.724
X184.912Y-112.724
X184.912Y-117.724
X184.912Y-122.724
X184.912Y-127.724
T3
X165.1Y-104.775
X165.1Y-112.395
X167.64Y-104.775
X167.64Y-112.395
T4
X99.377Y-83.185
X99.377Y-85.725
X99.377Y-88.265
X99.377Y-90.805
X99.377Y-93.345
X99.377Y-95.885
X99.377Y-98.425
X99.377Y-111.76
X99.377Y-114.3
X99.377Y-116.84
X99.377Y-119.38
X99.377Y-121.92
X99.377Y-124.46
X99.377Y-127.
X101.917Y-83.185
X101.917Y-85.725
X101.917Y-88.265
X101.917Y-90.805
X101.917Y-93.345
X101.917Y-95.885
X101.917Y-98.425
X101.917Y-111.76
X101.917Y-114.3
X101.917Y-116.84
X101.917Y-119.38
X101.917Y-121.92
X101.917Y-124.46
X101.917Y-127.
X127.Y-74.93
X127.Y-77.47
X129.54Y-74.93
X129.54Y-77.47
X132.08Y-74.93
X132.08Y-77.47
X134.62Y-74.93
X134.62Y-77.47
X137.16Y-74.93
X137.16Y-77.47
X143.51Y-132.715
X143.51Y-135.255
X146.05Y-132.715
X146.05Y-135.255
X148.59Y-132.715
X148.59Y-135.255
X151.13Y-132.715
X151.13Y-135.255
X153.67Y-132.715
X153.67Y-135.255
X156.21Y-132.715
X156.21Y-135.255
X158.75Y-132.715
X158.75Y-135.255
X174.371Y-83.185
X174.371Y-85.725
X174.371Y-88.265
X174.371Y-90.805
X174.371Y-93.345
X174.371Y-95.885
X174.371Y-98.425
X174.371Y-111.76
X174.371Y-114.3
X174.371Y-116.84
X174.371Y-119.38
X174.371Y-121.92
X174.371Y-124.46
X174.371Y-127.
X176.911Y-83.185
X176.911Y-85.725
X176.911Y-88.265
X176.911Y-90.805
X176.911Y-93.345
X176.911Y-95.885
X176.911Y-98.425
X176.911Y-111.76
X176.911Y-114.3
X176.911Y-116.84
X176.911Y-119.38
X176.911Y-121.92
X176.911Y-124.46
X176.911Y-127.
X180.594Y-73.406
X183.134Y-73.406
X185.674Y-73.406
T0
M30
