M48
;DRILL file {KiCad 4.0.3-stable} date 09/19/16 22:30:33
;FORMAT={-:-/ absolute / metric / decimal}
FMAT,2
METRIC,TZ
T1C0.300
T2C0.400
T3C0.762
T4C1.000
T5C1.016
%
G90
G05
M71
T1
X126.718Y-99.28
X130.954Y-112.223
T2
X92.456Y-70.612
X92.456Y-75.612
X92.456Y-80.612
X92.456Y-85.612
X92.456Y-90.612
X92.456Y-95.612
X92.456Y-100.612
X92.456Y-105.612
X92.456Y-110.612
X92.456Y-115.612
X92.456Y-120.612
X92.456Y-125.612
X92.456Y-130.612
X105.156Y-85.09
X106.045Y-67.818
X108.839Y-67.564
X110.275Y-106.205
X113.862Y-109.052
X114.046Y-67.564
X115.951Y-67.691
X116.627Y-105.027
X116.84Y-98.044
X117.22Y-101.493
X118.491Y-80.137
X118.612Y-126.986
X118.844Y-101.048
X120.396Y-101.6
X120.523Y-66.04
X120.558Y-100.058
X120.602Y-94.879
X121.505Y-99.954
X122.301Y-83.058
X122.76Y-109.063
X123.351Y-97.801
X124.965Y-62.067
X125.066Y-93.168
X125.856Y-72.701
X125.888Y-81.001
X126.475Y-105.651
X128.397Y-67.564
X129.931Y-104.412
X130.757Y-106.999
X130.869Y-103.453
X131.572Y-127.
X131.584Y-105.156
X131.704Y-115.081
X131.937Y-102.381
X132.102Y-108.394
X133.391Y-101.064
X134.059Y-109.957
X134.747Y-111.252
X134.847Y-92.47
X135.21Y-116.1
X135.636Y-99.568
X135.846Y-71.201
X135.846Y-73.201
X136.144Y-102.108
X136.144Y-106.68
X137.16Y-105.664
X137.554Y-109.936
X137.629Y-96.91
X137.668Y-100.584
X137.91Y-71.201
X137.91Y-73.201
X138.176Y-104.648
X138.69Y-67.544
X138.838Y-112.97
X139.065Y-97.79
X139.192Y-103.632
X139.192Y-105.664
X139.655Y-120.877
X139.715Y-100.087
X139.717Y-112.102
X140.62Y-121.016
X140.716Y-99.568
X141.124Y-71.167
X141.124Y-73.279
X141.87Y-100.676
X142.558Y-108.775
X142.758Y-116.056
X142.875Y-101.727
X143.11Y-90.545
X143.256Y-91.44
X143.51Y-108.331
X144.145Y-95.885
X144.233Y-90.748
X144.482Y-80.943
X144.659Y-117.067
X144.872Y-106.798
X146.206Y-105.389
X146.304Y-84.328
X146.304Y-86.328
X146.431Y-100.838
X146.939Y-112.141
X147.018Y-77.201
X147.03Y-75.64
X147.278Y-74.017
X147.865Y-80.93
X147.885Y-74.81
X147.885Y-76.445
X148.304Y-84.328
X148.304Y-86.328
X148.336Y-110.744
X149.225Y-111.252
X149.53Y-103.298
X150.366Y-63.241
X150.679Y-115.92
X151.072Y-102.618
X151.238Y-71.877
X151.885Y-109.605
X151.887Y-107.193
X152.363Y-111.235
X153.021Y-63.991
X153.416Y-70.612
X154.483Y-67.475
X155.448Y-101.092
X155.448Y-103.092
X156.167Y-67.227
X156.249Y-76.433
X157.448Y-101.092
X157.448Y-103.092
X158.202Y-77.269
X158.649Y-66.117
X159.607Y-72.541
X159.623Y-68.556
X161.561Y-75.638
X161.774Y-73.085
X162.193Y-78.944
X162.297Y-67.997
X165.533Y-73.356
X165.624Y-70.81
X166.399Y-67.999
X169.118Y-66.061
X169.512Y-76.678
X171.258Y-67.757
X171.41Y-70.153
X172.888Y-70.954
X176.176Y-71.79
X176.181Y-78.92
X177.673Y-72.136
X179.832Y-105.156
X180.284Y-74.75
X184.912Y-77.724
X184.912Y-82.724
X184.912Y-87.724
X184.912Y-92.724
X184.912Y-97.724
X184.912Y-102.724
X184.912Y-107.724
X184.912Y-112.724
X184.912Y-117.724
X184.912Y-122.724
X184.912Y-127.724
T3
X162.56Y-102.87
X162.56Y-110.49
X165.1Y-102.87
X165.1Y-110.49
X167.64Y-102.87
X167.64Y-110.49
T4
X99.06Y-83.185
X99.06Y-85.725
X99.06Y-88.265
X99.06Y-90.805
X99.06Y-93.345
X99.06Y-95.885
X99.06Y-98.425
X99.06Y-111.76
X99.06Y-114.3
X99.06Y-116.84
X99.06Y-119.38
X99.06Y-121.92
X99.06Y-124.46
X99.06Y-127.
X101.6Y-83.185
X101.6Y-85.725
X101.6Y-88.265
X101.6Y-90.805
X101.6Y-93.345
X101.6Y-95.885
X101.6Y-98.425
X101.6Y-111.76
X101.6Y-114.3
X101.6Y-116.84
X101.6Y-119.38
X101.6Y-121.92
X101.6Y-124.46
X101.6Y-127.
X107.95Y-74.93
X107.95Y-77.47
X110.49Y-74.93
X110.49Y-77.47
X113.03Y-74.93
X113.03Y-77.47
X115.57Y-74.93
X115.57Y-77.47
X118.11Y-74.93
X118.11Y-77.47
X143.51Y-132.715
X143.51Y-135.255
X146.05Y-132.715
X146.05Y-135.255
X148.59Y-132.715
X148.59Y-135.255
X151.13Y-132.715
X151.13Y-135.255
X153.67Y-132.715
X153.67Y-135.255
X156.21Y-132.715
X156.21Y-135.255
X158.75Y-132.715
X158.75Y-135.255
X174.625Y-83.185
X174.625Y-85.725
X174.625Y-88.265
X174.625Y-90.805
X174.625Y-93.345
X174.625Y-95.885
X174.625Y-98.425
X174.625Y-111.76
X174.625Y-114.3
X174.625Y-116.84
X174.625Y-119.38
X174.625Y-121.92
X174.625Y-124.46
X174.625Y-127.
X177.165Y-83.185
X177.165Y-85.725
X177.165Y-88.265
X177.165Y-90.805
X177.165Y-93.345
X177.165Y-95.885
X177.165Y-98.425
X177.165Y-111.76
X177.165Y-114.3
X177.165Y-116.84
X177.165Y-119.38
X177.165Y-121.92
X177.165Y-124.46
X177.165Y-127.
T5
X182.499Y-69.723
X182.499Y-72.263
X182.499Y-74.803
X185.039Y-69.723
X185.039Y-72.263
X185.039Y-74.803
T0
M30
